# xmcd CD database file
# Copyright (C) 1995-1998 Ti Kan
#
# Track frame offsets:
#	150
#	12882
#	26320
#	38580
#	51537
#	66307
#	78982
#	92517
#	106245
#	117330
#	130427
#	142225
#	154777
#	167040
#	180460
#	193455
#	206615
#	219162
#
# Disc length: 3089 seconds
#
# Revision: 0
# Processed by: cddbd v1.4b42PL1 Copyright (c) Steve Scherf et al.
# Submitted via: CDex 1.30Release
#
DISCID=fc0c0f12
DTITLE=Big Bill Broonzy - Chicago 1937-1945 CD2 - Chicago 1937-1945 CD2
DYEAR=2001
DGENRE=Blues
TTITLE0=Looking For My Baby
TTITLE1=Looking Up At Down
TTITLE2=Midnight Steppers
TTITLE3=Serenade Blues
TTITLE4=Getting Older Every Day
TTITLE5=Rocking Chair Blues
TTITLE6=Sweet Honey Bee
TTITLE7=Key To The Highway
TTITLE8=All By Myself
TTITLE9=Keep Your Hand On Your Heart
TTITLE10=What's Wrong With Me
TTITLE11=I Feel So Good
TTITLE12=In The Army Now
TTITLE13=Tell Me Baby
TTITLE14=Doing The Best I Can
TTITLE15=When I Get To Thinkin
TTITLE16=Roll Them Bones
TTITLE17=You Got The Best Go
EXTD=\n YEAR: 2001 ID3G:   0
EXTT0=
EXTT1=
EXTT2=
EXTT3=
EXTT4=
EXTT5=
EXTT6=
EXTT7=
EXTT8=
EXTT9=
EXTT10=
EXTT11=
EXTT12=
EXTT13=
EXTT14=
EXTT15=
EXTT16=
EXTT17=
PLAYORDER=
